<svg width="105" height="45" viewBox="0 0 105 45" fill="none" xmlns="http://www.w3.org/2000/svg">
<circle cx="22.5" cy="22.5" r="22.5" fill="black"/>
<path d="M26.224 12.6C28.1653 12.6 29.8507 12.92 31.28 13.56C32.7307 14.2 33.84 15.1173 34.608 16.312C35.376 17.5067 35.76 18.9253 35.76 20.568C35.76 22.1893 35.376 23.608 34.608 24.824C33.84 26.0187 32.7307 26.936 31.28 27.576C29.8507 28.216 28.1653 28.536 26.224 28.536H21.168V35H17.008V12.6H26.224ZM26.032 25.016C27.8453 25.016 29.2213 24.632 30.16 23.864C31.0987 23.096 31.568 21.9973 31.568 20.568C31.568 19.1387 31.0987 18.04 30.16 17.272C29.2213 16.504 27.8453 16.12 26.032 16.12H21.168V25.016H26.032ZM50.6908 35.32C48.4081 35.32 46.3494 34.8293 44.5148 33.848C42.6801 32.8453 41.2401 31.4693 40.1948 29.72C39.1494 27.9493 38.6268 25.976 38.6268 23.8C38.6268 21.624 39.1494 19.6613 40.1948 17.912C41.2401 16.1413 42.6801 14.7653 44.5148 13.784C46.3494 12.7813 48.4081 12.28 50.6908 12.28C52.9734 12.28 55.0321 12.7813 56.8668 13.784C58.7014 14.7653 60.1414 16.1307 61.1868 17.88C62.2321 19.6293 62.7548 21.6027 62.7548 23.8C62.7548 25.9973 62.2321 27.9707 61.1868 29.72C60.1414 31.4693 58.7014 32.8453 56.8668 33.848C55.0321 34.8293 52.9734 35.32 50.6908 35.32ZM50.6908 31.672C52.1841 31.672 53.5281 31.3413 54.7228 30.68C55.9174 29.9973 56.8561 29.0587 57.5388 27.864C58.2214 26.648 58.5628 25.2933 58.5628 23.8C58.5628 22.3067 58.2214 20.9627 57.5388 19.768C56.8561 18.552 55.9174 17.6133 54.7228 16.952C53.5281 16.2693 52.1841 15.928 50.6908 15.928C49.1974 15.928 47.8534 16.2693 46.6588 16.952C45.4641 17.6133 44.5254 18.552 43.8428 19.768C43.1601 20.9627 42.8188 22.3067 42.8188 23.8C42.8188 25.2933 43.1601 26.648 43.8428 27.864C44.5254 29.0587 45.4641 29.9973 46.6588 30.68C47.8534 31.3413 49.1974 31.672 50.6908 31.672ZM67.1643 12.6H71.3243V31.48H83.0363V35H67.1643V12.6ZM103.636 32.856C102.634 33.6453 101.343 34.2533 99.7643 34.68C98.1856 35.1067 96.4789 35.32 94.6443 35.32C92.4896 35.32 90.6549 35.0427 89.1403 34.488C87.6469 33.9333 86.5163 33.1653 85.7483 32.184C84.9803 31.2027 84.5963 30.072 84.5963 28.792C84.5963 27.5547 84.9376 26.4773 85.6203 25.56C86.3029 24.6427 87.2203 23.9707 88.3723 23.544C87.4976 23.0747 86.8043 22.424 86.2923 21.592C85.8016 20.7387 85.5563 19.7893 85.5563 18.744C85.5563 17.5493 85.9083 16.472 86.6123 15.512C87.3376 14.5307 88.4149 13.752 89.8443 13.176C91.2736 12.5787 93.0336 12.28 95.1243 12.28C96.5323 12.28 97.9083 12.4293 99.2523 12.728C100.596 13.0267 101.77 13.432 102.772 13.944L101.588 17.24C99.7109 16.2587 97.6096 15.768 95.2843 15.768C93.4496 15.768 92.0629 16.0667 91.1243 16.664C90.2069 17.24 89.7483 18.0187 89.7483 19C89.7483 19.96 90.0896 20.696 90.7723 21.208C91.4549 21.6987 92.4576 21.944 93.7803 21.944H99.7003V25.4H93.5563C92.0416 25.4 90.8683 25.6667 90.0363 26.2C89.2043 26.712 88.7883 27.48 88.7883 28.504C88.7883 29.528 89.2896 30.3387 90.2923 30.936C91.2949 31.5333 92.8096 31.832 94.8363 31.832C96.2443 31.832 97.6096 31.64 98.9323 31.256C100.276 30.872 101.396 30.3387 102.292 29.656L103.636 32.856Z" fill="#E3E3E3"/>
</svg>
