<svg width="33" height="32" viewBox="0 0 33 32" fill="none" xmlns="http://www.w3.org/2000/svg">
<path d="M5.83464 29.3334H27.168C27.8752 29.3334 28.5535 29.0525 29.0536 28.5524C29.5537 28.0523 29.8346 27.374 29.8346 26.6667V5.33341C29.8346 4.62617 29.5537 3.94789 29.0536 3.4478C28.5535 2.9477 27.8752 2.66675 27.168 2.66675H11.168C10.4607 2.66675 9.78245 2.9477 9.28235 3.4478C8.78225 3.94789 8.5013 4.62617 8.5013 5.33341V26.6667C8.5013 27.374 8.22035 28.0523 7.72025 28.5524C7.22016 29.0525 6.54188 29.3334 5.83464 29.3334ZM5.83464 29.3334C5.12739 29.3334 4.44911 29.0525 3.94902 28.5524C3.44892 28.0523 3.16797 27.374 3.16797 26.6667V14.6667C3.16797 13.2001 4.36797 12.0001 5.83464 12.0001H8.5013M24.5013 18.6667H13.8346M20.5013 24.0001H13.8346M13.8346 8.00008H24.5013V13.3334H13.8346V8.00008Z" stroke="white" stroke-opacity="0.5" stroke-width="2" stroke-linecap="round" stroke-linejoin="round"/>
</svg>
