<svg width="33" height="32" viewBox="0 0 33 32" fill="none" xmlns="http://www.w3.org/2000/svg">
<circle cx="16.5" cy="16" r="16" fill="#88C025" fill-opacity="0.25"/>
<g clip-path="url(#clip0_121_860)">
<path d="M19.2985 9.41748C20.729 9.41748 21.9709 9.64009 23.024 10.0853C24.093 10.5305 24.9103 11.1687 25.4762 11.9997C26.0421 12.8308 26.3251 13.8177 26.3251 14.9604C26.3251 16.0883 26.0421 17.0752 25.4762 17.9211C24.9103 18.7522 24.093 19.3904 23.024 19.8356C21.9709 20.2808 20.729 20.5034 19.2985 20.5034H15.5731V25.0001H12.5078V9.41748H19.2985ZM19.1571 18.0547C20.4932 18.0547 21.5071 17.7876 22.1988 17.2533C22.8904 16.719 23.2362 15.9548 23.2362 14.9604C23.2362 13.9661 22.8904 13.2018 22.1988 12.6676C21.5071 12.1333 20.4932 11.8662 19.1571 11.8662H15.5731V18.0547H19.1571Z" fill="#88C025"/>
</g>
<defs>
<clipPath id="clip0_121_860">
<rect width="14" height="16" fill="white" transform="translate(12.5 9)"/>
</clipPath>
</defs>
</svg>
