<svg width="20" height="20" viewBox="0 0 20 20" fill="none" xmlns="http://www.w3.org/2000/svg">
<g clip-path="url(#clip0_128_5593)">
<path d="M12.5012 4.1667L15.8346 7.50003M17.6462 5.6767C18.0868 5.23622 18.3344 4.63876 18.3345 4.01574C18.3346 3.39273 18.0871 2.79521 17.6467 2.35462C17.2062 1.91403 16.6087 1.66646 15.9857 1.66638C15.3627 1.6663 14.7652 1.91372 14.3246 2.3542L3.20291 13.4784C3.00943 13.6713 2.86634 13.9088 2.78625 14.17L1.68541 17.7967C1.66388 17.8688 1.66225 17.9453 1.68071 18.0182C1.69916 18.0912 1.73701 18.1577 1.79024 18.2109C1.84347 18.264 1.9101 18.3018 1.98305 18.3201C2.05599 18.3384 2.13255 18.3367 2.20458 18.315L5.83208 17.215C6.09306 17.1357 6.33056 16.9934 6.52375 16.8009L17.6462 5.6767Z" stroke="white" stroke-opacity="0.75" stroke-width="1.66667" stroke-linecap="round" stroke-linejoin="round"/>
</g>
<defs>
<clipPath id="clip0_128_5593">
<rect width="20" height="20" fill="white"/>
</clipPath>
</defs>
</svg>
