<svg width="21" height="20" viewBox="0 0 21 20" fill="none" xmlns="http://www.w3.org/2000/svg">
<path d="M17.0013 8.33341C17.0013 12.4942 12.3855 16.8276 10.8355 18.1659C10.6911 18.2745 10.5153 18.3332 10.3346 18.3332C10.154 18.3332 9.9782 18.2745 9.8338 18.1659C8.2838 16.8276 3.66797 12.4942 3.66797 8.33341C3.66797 6.5653 4.37035 4.86961 5.62059 3.61937C6.87083 2.36913 8.56653 1.66675 10.3346 1.66675C12.1027 1.66675 13.7984 2.36913 15.0487 3.61937C16.2989 4.86961 17.0013 6.5653 17.0013 8.33341Z" stroke="white" stroke-opacity="0.75" stroke-width="1.66667" stroke-linecap="round" stroke-linejoin="round"/>
<path d="M10.3346 10.8334C11.7153 10.8334 12.8346 9.71413 12.8346 8.33341C12.8346 6.9527 11.7153 5.83341 10.3346 5.83341C8.95392 5.83341 7.83464 6.9527 7.83464 8.33341C7.83464 9.71413 8.95392 10.8334 10.3346 10.8334Z" stroke="white" stroke-opacity="0.75" stroke-width="1.66667" stroke-linecap="round" stroke-linejoin="round"/>
</svg>
