<svg width="24" height="23" viewBox="0 0 24 23" fill="none" xmlns="http://www.w3.org/2000/svg">
<g clip-path="url(#clip0_143_534)">
<path fill-rule="evenodd" clip-rule="evenodd" d="M0 1.89154C0.00457143 1.23581 0.534674 0.705163 1.1904 0.699951H22.8096C23.4672 0.699951 24 1.23394 24 1.89154V21.1084C23.9954 21.7641 23.4653 22.2947 22.8096 22.3H1.1904C0.5328 22.2993 0 21.766 0 21.1084V1.89154ZM21.6001 3.1H2.40014V19.9L13.5505 8.74717C14.0192 8.27874 14.7787 8.27874 15.2474 8.74717L21.6001 15.112V3.1ZM4.79986 7.89991C4.79986 9.22539 5.87438 10.2999 7.19986 10.2999C8.52535 10.2999 9.59986 9.22539 9.59986 7.89991C9.59986 6.57442 8.52535 5.49991 7.19986 5.49991C5.87438 5.49991 4.79986 6.57442 4.79986 7.89991Z" fill="#555549"/>
</g>
<defs>
<clipPath id="clip0_143_534">
<rect width="24" height="21.6" fill="white" transform="translate(0 0.699951)"/>
</clipPath>
</defs>
</svg>
