<svg width="33" height="32" viewBox="0 0 33 32" fill="none" xmlns="http://www.w3.org/2000/svg">
<path d="M24.5013 26.6667C24.5013 24.545 23.6585 22.5102 22.1582 21.0099C20.6579 19.5096 18.623 18.6667 16.5013 18.6667M16.5013 18.6667C14.3796 18.6667 12.3447 19.5096 10.8444 21.0099C9.34416 22.5102 8.5013 24.545 8.5013 26.6667M16.5013 18.6667C19.4468 18.6667 21.8346 16.2789 21.8346 13.3334C21.8346 10.3879 19.4468 8.00008 16.5013 8.00008C13.5558 8.00008 11.168 10.3879 11.168 13.3334C11.168 16.2789 13.5558 18.6667 16.5013 18.6667ZM29.8346 16.0001C29.8346 23.3639 23.8651 29.3334 16.5013 29.3334C9.13751 29.3334 3.16797 23.3639 3.16797 16.0001C3.16797 8.63628 9.13751 2.66675 16.5013 2.66675C23.8651 2.66675 29.8346 8.63628 29.8346 16.0001Z" stroke="white" stroke-opacity="0.5" stroke-width="2" stroke-linecap="round" stroke-linejoin="round"/>
</svg>
