<svg width="49" height="48" viewBox="0 0 49 48" fill="none" xmlns="http://www.w3.org/2000/svg">
<path d="M12.1 22.6L4.5 44L25.9 36.42M8.5 6H8.52M44.5 16H44.52M30.5 4H30.52M44.5 40H44.52M44.5 4L40.02 5.5C38.7448 5.92478 37.6567 6.77928 36.9417 7.91745C36.2266 9.05562 35.9291 10.4068 36.1 11.74C36.3 13.46 34.96 15 33.2 15H32.44C30.72 15 29.24 16.2 28.92 17.88L28.5 20M44.5 26L42.86 25.34C41.14 24.66 39.22 25.74 38.9 27.56C38.68 28.96 37.46 30 36.04 30H34.5M22.5 4L23.16 5.64C23.84 7.36 22.76 9.28 20.94 9.6C19.54 9.8 18.5 11.04 18.5 12.46V14M22.5 26C26.36 29.86 28.16 34.34 26.5 36C24.84 37.66 20.36 35.86 16.5 32C12.64 28.14 10.84 23.66 12.5 22C14.16 20.34 18.64 22.14 22.5 26Z" stroke="white" stroke-width="4" stroke-linecap="round" stroke-linejoin="round"/>
</svg>
