<svg width="49" height="49" viewBox="0 0 49 49" fill="none" xmlns="http://www.w3.org/2000/svg">
<path d="M24.5 10.5C27.5 7.5 29.98 6.5 33.5 6.5C36.4174 6.5 39.2153 7.65893 41.2782 9.72183C43.3411 11.7847 44.5 14.5826 44.5 17.5C44.5 22.08 41.48 25.58 38.5 28.5L24.5 42.5L10.5 28.5C7.5 25.6 4.5 22.1 4.5 17.5C4.5 14.5826 5.65893 11.7847 7.72183 9.72183C9.78473 7.65893 12.5826 6.5 15.5 6.5C19.02 6.5 21.5 7.5 24.5 10.5ZM24.5 10.5L20.5 14.5L26.5 20.5L22.5 24.5L24.5 26.5" stroke="white" stroke-width="4" stroke-linecap="round" stroke-linejoin="round"/>
</svg>
